<svg width="162" height="60" viewBox="0 0 162 60" fill="none" xmlns="http://www.w3.org/2000/svg">
<g clip-path="url(#clip0_251_1878)">
<path d="M32.5834 14.5243L33.4006 16.1777L35.2203 16.4437L33.9042 17.7266L34.2131 19.5415L32.5834 18.6863L30.9538 19.5415L31.2674 17.7266L29.9465 16.4437L31.771 16.1777L32.5834 14.5243Z" fill="white"/>
<path d="M7.47356 0L8.28601 1.6534L10.1104 1.91471L8.78963 3.20228L9.1032 5.01722L7.47356 4.15726L5.84391 5.01722L6.15274 3.20228L4.83667 1.91471L6.65636 1.6534L7.47356 0Z" fill="white"/>
<path d="M57.6979 0L58.5104 1.6534L60.3348 1.91471L59.014 3.20228L59.3276 5.01722L57.6979 4.15726L56.0683 5.01722L56.3771 3.20228L55.061 1.91471L56.8807 1.6534L57.6979 0Z" fill="white"/>
<path d="M31.3956 23.7557V31.4811L30.3694 30.8872L26.7632 28.8062L23.675 27.0245L20.0736 24.9435L16.9854 23.1618L13.384 21.0808L10.2957 19.2992L6.68962 17.2182V22.5632L7.72062 23.1618L11.322 25.2381L12.353 25.832L14.4102 27.0245L18.0164 29.1055L19.0426 29.6994L20.0736 30.2933L21.1046 30.8872L24.706 32.9682V40.6936L21.1046 38.6126H21.0999L20.0736 38.0187L19.0426 37.4248L18.0164 36.8309L14.4102 34.7499L13.384 34.156L11.322 32.9682L7.72062 30.8872L6.68962 30.2933V38.0187L7.72062 38.6126L11.322 40.6936L12.353 41.2875L14.4102 42.4753L18.0164 44.5563L19.0426 45.1502L20.0736 45.7441L21.1046 46.338L24.706 48.419L25.737 49.0129L26.7632 49.6068L27.7942 50.2007L31.3956 52.2817V60.007L27.7942 57.926L24.706 56.1443L21.1046 54.0681H21.0999L20.0736 53.4694L18.0164 52.2817L14.4102 50.2007L11.322 48.419L7.72062 46.338L4.63237 44.5563L1.031 42.4753H1.02625L0 41.8814V5.62535L3.60137 7.70635L5.66337 8.89414L6.68962 9.48804L10.2957 11.5738L11.322 12.1629L12.353 12.7568L13.384 13.3507L16.9854 15.4317L20.0736 17.2134L23.675 19.2992L24.706 19.8883L25.737 20.487L26.7632 21.0761L30.3694 23.1618L31.3956 23.7557Z" fill="white"/>
<path d="M64.8532 5.62535V41.8814L63.827 42.4753L60.2209 44.5563L57.1326 46.338L53.5313 48.419L50.443 50.2007L46.8369 52.2817L43.7486 54.0681L40.1473 56.1443L37.059 57.926L33.4576 60.007V23.7557L34.4839 23.1618L38.09 21.0761L39.1163 20.487L40.1473 19.8883V48.419L43.7486 46.338L44.7796 45.7441L45.8106 45.1502L46.8369 44.5563L50.443 42.4753L52.5003 41.2875L53.5313 40.6936L57.1326 38.6126L58.1636 38.0187V9.48804L59.1899 8.89414L60.2209 8.30025L61.2471 7.70635H61.2519L64.8532 5.62535Z" fill="white"/>
<path d="M76.9591 17.0685H80.3039V31.7021H76.9591V17.0685ZM88.6717 17.0685C92.7064 17.0685 95.7794 20.2461 95.7794 24.3853C95.7794 28.5245 92.7064 31.7021 88.6717 31.7021H82.8183V17.0685H88.6717ZM88.6717 28.4827C90.9712 28.4827 92.56 26.8939 92.56 24.3853C92.56 21.8767 90.9712 20.2879 88.6717 20.2879H86.1631V28.4827H88.6717ZM97.6601 17.0685H101.005V31.7021H97.6601V17.0685ZM110.501 31.9947C106.3 31.9947 102.892 28.6917 102.892 24.3853C102.892 20.0788 106.3 16.7758 110.501 16.7758C114.703 16.7758 118.111 20.0788 118.111 24.3853C118.111 28.6917 114.703 31.9947 110.501 31.9947ZM110.501 28.7335C112.885 28.7335 114.766 26.9984 114.766 24.3853C114.766 21.7721 112.885 20.037 110.501 20.037C108.118 20.037 106.237 21.7721 106.237 24.3853C106.237 26.9984 108.118 28.7335 110.501 28.7335ZM134.628 17.0685V31.7021H131.283V23.1937L127.499 29.4025H127.123L123.339 23.1937V31.7021H119.994V17.0685H123.339L127.311 23.57L131.283 17.0685H134.628ZM146.446 31.7021L145.714 29.4025H140.279L139.547 31.7021H135.889L140.864 17.0685H145.129L150.104 31.7021H146.446ZM141.282 26.2667H144.711L142.996 20.8941L141.282 26.2667ZM156.167 31.9947C153.094 31.9947 151.129 30.5314 150.314 28.3782L153.199 26.7057C153.721 27.9182 154.62 28.7335 156.272 28.7335C157.861 28.7335 158.258 28.1064 158.258 27.5419C158.258 26.643 157.422 26.2876 155.227 25.6814C153.052 25.0752 150.92 24.0299 150.92 21.2286C150.92 18.4064 153.303 16.7758 155.833 16.7758C158.237 16.7758 160.118 17.9256 161.185 20.0788L158.362 21.7303C157.861 20.6851 157.171 20.037 155.833 20.037C154.788 20.037 154.265 20.5597 154.265 21.145C154.265 21.814 154.62 22.2739 156.899 22.9637C159.115 23.6327 161.603 24.4062 161.603 27.5001C161.603 30.3223 159.345 31.9947 156.167 31.9947Z" fill="white"/>
<path d="M80.5379 45.2016L79.9489 43.6598H76.9088L76.3198 45.2016H75.8348L78.1906 39.1386H78.6757L81.0229 45.2016H80.5379ZM77.082 43.2268H79.7843L78.4332 39.7016L77.082 43.2268ZM83.8671 45.2968C82.5332 45.2968 81.6498 44.4567 81.6498 43.1748V39.1386H82.1088V43.1748C82.1088 44.1622 82.7238 44.8551 83.8671 44.8551C85.019 44.8551 85.634 44.1622 85.634 43.1748V39.1386H86.093V43.1748C86.093 44.4567 85.2009 45.2968 83.8671 45.2968ZM87.9725 44.7685H90.8307V45.2016H87.5134V39.1386H87.9725V44.7685ZM96.0336 45.2016L95.4446 43.6598H92.4045L91.8155 45.2016H91.3304L93.6863 39.1386H94.1714L96.5186 45.2016H96.0336ZM92.5777 43.2268H95.28L93.9289 39.7016L92.5777 43.2268ZM99.0856 45.2968C97.951 45.2968 97.1455 44.7252 96.8683 43.8677L97.2667 43.6338C97.4746 44.3614 98.0895 44.8551 99.0856 44.8551C100.099 44.8551 100.61 44.3354 100.61 43.6425C100.61 42.915 99.9691 42.6378 99.0423 42.3433C98.0289 42.0142 97.1195 41.7284 97.1195 40.6717C97.1195 39.6756 97.925 39.0433 98.9557 39.0433C99.9517 39.0433 100.61 39.615 100.904 40.3166L100.515 40.5331C100.29 39.9874 99.8218 39.4851 98.9557 39.4851C98.1155 39.4851 97.5872 39.9788 97.5872 40.6543C97.5872 41.3819 98.2021 41.6071 99.0683 41.8929C100.142 42.248 101.078 42.5858 101.078 43.6338C101.078 44.6386 100.29 45.2968 99.0856 45.2968ZM104.974 44.7685H108.005V45.2016H104.515V39.1386H107.962V39.5717H104.974V41.9276H107.745V42.3606H104.974V44.7685ZM115.166 39.1386V39.5717H113.261V45.2016H112.793V39.5717H110.888V39.1386H115.166ZM119.948 45.2016L118.493 42.7157H116.579V45.2016H116.12V39.1386H118.51C119.497 39.1386 120.303 39.9441 120.303 40.9315C120.303 41.7543 119.74 42.4472 118.969 42.6551L120.476 45.2016H119.948ZM116.579 39.5717V42.2827H118.51C119.246 42.2827 119.844 41.6764 119.844 40.9315C119.844 40.178 119.246 39.5717 118.51 39.5717H116.579ZM125.511 45.2016L124.922 43.6598H121.882L121.293 45.2016H120.808L123.164 39.1386H123.649L125.996 45.2016H125.511ZM122.055 43.2268H124.757L123.406 39.7016L122.055 43.2268ZM129.157 39.1386C130.828 39.1386 132.015 40.4984 132.015 42.1701C132.015 43.8417 130.828 45.2016 129.157 45.2016H126.879V39.1386H129.157ZM129.157 44.7685C130.586 44.7685 131.564 43.6079 131.564 42.1701C131.564 40.7323 130.586 39.5717 129.157 39.5717H127.338V44.7685H129.157ZM135.26 45.2968C133.926 45.2968 133.043 44.4567 133.043 43.1748V39.1386H133.502V43.1748C133.502 44.1622 134.117 44.8551 135.26 44.8551C136.412 44.8551 137.027 44.1622 137.027 43.1748V39.1386H137.486V43.1748C137.486 44.4567 136.594 45.2968 135.26 45.2968ZM144.328 43.8157C143.861 44.6559 142.96 45.2275 141.903 45.2882V45.6866C142.345 45.7386 142.691 45.9638 142.691 46.3362C142.691 46.7606 142.319 47.133 141.002 47.0291V46.674C141.877 46.7606 142.31 46.6134 142.31 46.3362C142.31 46.085 142.024 45.9638 141.513 45.9638V45.2882C139.772 45.1929 138.56 43.8417 138.56 42.1701C138.56 40.4378 139.868 39.0433 141.713 39.0433C142.83 39.0433 143.809 39.615 144.311 40.4984L143.904 40.7323C143.506 39.9874 142.665 39.4851 141.713 39.4851C140.119 39.4851 139.019 40.6803 139.019 42.1701C139.019 43.6598 140.119 44.8551 141.713 44.8551C142.674 44.8551 143.523 44.3441 143.921 43.5819L144.328 43.8157ZM147.013 38.4197C147.013 37.441 147.611 37.2591 148.208 37.7788C148.693 38.1945 148.988 38.2032 148.988 37.5363H149.369C149.369 38.5063 148.771 38.6969 148.174 38.1772C147.689 37.7615 147.394 37.7441 147.394 38.4197H147.013ZM148.191 45.2968C146.442 45.2968 145.064 43.9024 145.064 42.1701C145.064 40.4378 146.442 39.0433 148.191 39.0433C149.941 39.0433 151.318 40.4378 151.318 42.1701C151.318 43.9024 149.941 45.2968 148.191 45.2968ZM148.191 44.8551C149.69 44.8551 150.859 43.6598 150.859 42.1701C150.859 40.6803 149.69 39.4851 148.191 39.4851C146.693 39.4851 145.523 40.6803 145.523 42.1701C145.523 43.6598 146.693 44.8551 148.191 44.8551ZM152.941 44.7685H155.973V45.2016H152.482V39.1386H155.929V39.5717H152.941V41.9276H155.713V42.3606H152.941V44.7685ZM158.954 45.2968C157.819 45.2968 157.014 44.7252 156.736 43.8677L157.135 43.6338C157.343 44.3614 157.958 44.8551 158.954 44.8551C159.967 44.8551 160.478 44.3354 160.478 43.6425C160.478 42.915 159.837 42.6378 158.91 42.3433C157.897 42.0142 156.988 41.7284 156.988 40.6717C156.988 39.6756 157.793 39.0433 158.824 39.0433C159.82 39.0433 160.478 39.615 160.773 40.3166L160.383 40.5331C160.158 39.9874 159.69 39.4851 158.824 39.4851C157.984 39.4851 157.455 39.9788 157.455 40.6543C157.455 41.3819 158.07 41.6071 158.936 41.8929C160.01 42.248 160.946 42.5858 160.946 43.6338C160.946 44.6386 160.158 45.2968 158.954 45.2968Z" fill="white"/>
</g>
<defs>
<clipPath id="clip0_251_1878">
<rect width="162" height="60.007" fill="white"/>
</clipPath>
</defs>
</svg>
