<svg width="32" height="32" viewBox="0 0 32 32" fill="none" xmlns="http://www.w3.org/2000/svg">
<path fill-rule="evenodd" clip-rule="evenodd" d="M21.425 10.4781C19.9719 9.025 18.0344 8.25 16 8.25C11.7375 8.25 8.25 11.7375 8.25 16C8.25 17.3563 8.63751 18.7125 9.31563 19.875L8.25 23.75L12.3188 22.6844C13.4813 23.2656 14.7406 23.6531 16 23.6531C20.2625 23.6531 23.75 20.1656 23.75 15.9031C23.75 13.8688 22.8781 11.9313 21.425 10.4781ZM16 22.3938C14.8375 22.3938 13.675 22.1031 12.7063 21.5219L12.5125 21.425L10.0906 22.1031L10.7688 19.7781L10.575 19.4875C9.89687 18.4219 9.60624 17.2594 9.60624 16.0969C9.60624 12.6094 12.5125 9.70313 16 9.70313C17.7438 9.70313 19.2938 10.3812 20.5531 11.5437C21.8125 12.8031 22.3938 14.3531 22.3938 16.0969C22.3938 19.4875 19.5844 22.3938 16 22.3938ZM19.4875 17.55C19.2938 17.4531 18.325 16.9688 18.1313 16.9688C17.9375 16.8719 17.8406 16.8719 17.7437 17.0656C17.6469 17.2594 17.2594 17.6469 17.1625 17.8406C17.0656 17.9375 16.9687 17.9375 16.775 17.9375C16.5812 17.8406 16 17.6469 15.225 16.9688C14.6438 16.4844 14.2563 15.8063 14.1594 15.6125C14.0625 15.4188 14.1594 15.3219 14.2563 15.225C14.3531 15.1281 14.45 15.0313 14.5469 14.9344C14.6438 14.8375 14.6438 14.7406 14.7406 14.6438C14.8375 14.5469 14.7406 14.45 14.7406 14.3531C14.7406 14.2563 14.3531 13.2875 14.1594 12.9C14.0625 12.6094 13.8688 12.6094 13.7719 12.6094C13.675 12.6094 13.5781 12.6094 13.3844 12.6094C13.2875 12.6094 13.0937 12.6094 12.9 12.8031C12.7062 12.9969 12.2219 13.4812 12.2219 14.45C12.2219 15.4188 12.9 16.2906 12.9969 16.4844C13.0937 16.5813 14.3531 18.6156 16.2906 19.3906C17.9375 20.0688 18.2281 19.875 18.6156 19.875C19.0031 19.875 19.7781 19.3906 19.875 19.0031C20.0688 18.5188 20.0688 18.1313 19.9719 18.1313C19.875 17.6469 19.6813 17.6469 19.4875 17.55Z" fill="white"/>
</svg>
